HIERARCHY
ROOT Hips
{
	OFFSET 0.00000 0.00000 0.00000
	CHANNELS 6 Xposition Yposition Zposition Zrotation Yrotation Xrotation 
	JOINT LHipJoint
	{
		OFFSET 0 0 0
		CHANNELS 3 Zrotation Yrotation Xrotation
		JOINT LeftHip
		{
			OFFSET 1.62329 -1.80800 0.67318
			CHANNELS 3 Zrotation Yrotation Xrotation
			JOINT LeftKnee
			{
				OFFSET 2.57139 -7.06484 0.00000
				CHANNELS 3 Zrotation Yrotation Xrotation
				JOINT LeftAnkle
				{
					OFFSET 2.52017 -6.92413 0.00000
					CHANNELS 3 Zrotation Yrotation Xrotation
					JOINT LeftToe
					{
						OFFSET 0.23295 -0.64001 2.10214
						CHANNELS 3 Zrotation Yrotation Xrotation
						End Site
						{
							OFFSET 0.00000 -0.00000 1.10139
						}
					}
				}
			}
		}
	}
	JOINT RHipJoint
	{
		OFFSET 0 0 0
		CHANNELS 3 Zrotation Yrotation Xrotation
		JOINT RightHip
		{
			OFFSET -1.48061 -1.80800 0.67318
			CHANNELS 3 Zrotation Yrotation Xrotation
			JOINT RightKnee
			{
				OFFSET -2.63258 -7.23296 0.00000
				CHANNELS 3 Zrotation Yrotation Xrotation
				JOINT RightAnkle
				{
					OFFSET -2.54779 -7.00000 0.00000
					CHANNELS 3 Zrotation Yrotation Xrotation
					JOINT RightToe
					{
						OFFSET -0.23067 -0.63376 2.12161
						CHANNELS 3 Zrotation Yrotation Xrotation
						End Site
						{
							OFFSET -0.00000 -0.00000 1.11000
						}
					}
				}
			}
		}
	}
	JOINT lowerback
	{
		OFFSET 0 0 0
		CHANNELS 3 Zrotation Yrotation Xrotation
		JOINT Chest
		{
			OFFSET -0.02108 2.07573 -0.16981
			CHANNELS 3 Zrotation Yrotation Xrotation
			JOINT Chest2
			{
				OFFSET 0.05070 2.08439 -0.03141
				CHANNELS 3 Zrotation Yrotation Xrotation
				JOINT lowerneck
				{
					OFFSET 0 0 0
					CHANNELS 3 Zrotation Yrotation Xrotation
					JOINT Neck
					{
						OFFSET -0.10731 1.60408 0.31370
						CHANNELS 3 Zrotation Yrotation Xrotation
						JOINT Head
						{
							OFFSET 0.08411 1.65679 -0.30822
							CHANNELS 3 Zrotation Yrotation Xrotation
							End Site
							{
								OFFSET 0.03911 1.69149 -0.14146
							}
						}
					}
				}
				JOINT LeftCollar
				{
					OFFSET 0 0 0
					CHANNELS 3 Zrotation Yrotation Xrotation
					JOINT LeftShoulder
					{
						OFFSET 3.52315 0.73219 -0.54694
CHANNELS 3 Zrotation Xrotation Yrotation
						JOINT LeftElbow
						{
OFFSET 0 -5.324620 -0.000000
CHANNELS 3 Zrotation Xrotation Yrotation
							JOINT LeftWrist
							{
OFFSET 0 -3.484020 -0.000000
CHANNELS 3 Zrotation Xrotation Yrotation
								JOINT lhand
								{
									OFFSET 0 0 0
CHANNELS 3 Zrotation Xrotation Yrotation
									JOINT LFingers
									{
OFFSET 0 -0.572480 -0.000000
CHANNELS 3 Zrotation Xrotation Yrotation
										End Site
										{
OFFSET 0 -0.461540 -0.000000
										}
									}
								}
								JOINT LThumb
								{
OFFSET 0 0.000000 0.000000
CHANNELS 3 Zrotation Xrotation Yrotation
									End Site
									{
OFFSET 0 -0.468590 0.468590
									}
								}
							}
						}
					}
				}
				JOINT RightCollar
				{
					OFFSET 0 0 0
					CHANNELS 3 Zrotation Yrotation Xrotation
					JOINT RightShoulder
					{
						OFFSET -3.41766 0.93592 -0.10019
CHANNELS 3 Zrotation Xrotation Yrotation
						JOINT RightElbow
						{
OFFSET 0 -5.335890 -0.000000
CHANNELS 3 Zrotation Xrotation Yrotation
							JOINT RightWrist
							{
OFFSET 0 -3.641340 -0.000000
CHANNELS 3 Zrotation Xrotation Yrotation
								JOINT rhand
								{
									OFFSET 0 0 0
CHANNELS 3 Zrotation Xrotation Yrotation
									JOINT RFingers
									{
OFFSET 0 -0.734810 -0.000000
CHANNELS 3 Zrotation Xrotation Yrotation
										End Site
										{
OFFSET 0 -0.592420 -0.000000
										}
									}
								}
								JOINT RThumb
								{
OFFSET 0 0.000000 0.000000
CHANNELS 3 Zrotation Xrotation Yrotation
									End Site
									{
OFFSET 0 -0.601470 0.601470
									}
								}
							}
						}
					}
				}
			}
		}
	}
}
MOTION
Frames: 4
Frame Time: 0.008333333333333333
-3.910100 17.936200 -3.983500 -0.147800 1.228500 5.246500 0.000000 0.000000 0.000000 -14.300200 -8.009300 -13.609500 1.932600 8.724300 24.936600 0.102100 7.748100 -12.989000 1.076900 -6.596200 -18.524500 0.000000 0.000000 0.000000 22.187200 7.009800 -10.610600 -2.128600 -9.128900 26.199400 -1.022100 3.329000 -18.282700 -0.436900 -4.241400 11.756700 -2.164800 -1.750900 4.436300 1.607700 -2.405500 0.054900 3.018900 -1.168700 -2.271200 -13.110300 -8.761300 -20.990900 5.559600 -9.411100 21.517500 2.619700 -4.686700 11.387600 -0.000000 0.000000 0.000000 1.412900 -4.157600 -21.188000 21.229400 -32.095100 6.171400 10.262400 10.892100 -30.218700 0.000000 0.000000 0.000000 -7.125000 0.000000 0.000000 -23.778900 58.987300 8.426300 -0.000000 0.000000 0.000000 -4.569900 1.454900 20.855700 -19.241500 -29.717600 -5.150000 -18.598000 19.908200 -1.098700 0.000000 0.000000 0.000000 7.125000 0.000000 -0.000000 6.203800 28.797700 2.461200
-4.108752 17.951980 -4.092770 0.180247 -0.597306 5.731668 0.000000 0.000000 0.000000 -13.981514 -7.309317 -14.627948 1.940205 8.740458 24.986869 -0.029514 9.076062 -12.385329 1.020617 -6.427100 -18.028808 0.000000 0.000000 0.000000 22.346921 7.982271 -11.632865 -2.159890 -9.191392 26.395902 -0.920870 3.879989 -17.246570 -0.455481 -4.329511 12.005529 -2.161892 -1.467892 4.562167 1.953563 -2.022759 0.435044 3.348340 -0.986231 -1.963715 -12.619312 -8.269215 -20.851408 5.052760 -8.769946 21.691570 2.476649 -4.424906 11.308289 0.000000 0.000000 0.000000 0.394089 -3.247746 -22.946889 22.139249 -33.134046 6.661819 12.473665 11.333971 -26.482983 0.000000 0.000000 0.000000 -7.125000 0.000000 0.000000 -18.943586 55.992441 5.242248 0.000000 0.000000 0.000000 -5.320386 0.475235 17.082134 -16.789959 -26.579847 -3.993094 -19.380603 22.452077 -0.994848 0.000000 0.000000 0.000000 7.125000 0.000000 0.000000 5.601515 28.906075 2.205527
-4.268306 17.968186 -4.182360 0.941403 -0.850454 5.867759 0.000000 0.000000 0.000000 -14.365545 -7.214853 -14.742540 1.827090 8.496210 24.231786 -0.134492 9.869336 -11.521051 0.887019 -6.002832 -16.792796 0.000000 0.000000 0.000000 22.064224 8.664835 -12.246900 -2.249816 -9.368172 26.953903 -0.925122 2.944587 -17.423747 -0.545294 -4.730888 13.142567 -2.296915 -1.689879 5.158472 2.217771 -2.329140 0.722218 3.731273 -1.141384 -1.962580 -11.649726 -7.330437 -21.052448 3.992599 -7.476474 22.343209 2.156872 -3.898462 11.373882 0.000000 0.000000 0.000000 -0.402683 -2.362175 -24.184124 20.794766 -31.587795 5.942197 11.917308 12.849005 -25.223478 0.000000 0.000000 0.000000 -7.125000 0.000000 0.000000 -18.764522 54.690500 4.587153 0.000000 0.000000 0.000000 -6.024713 0.343235 13.618403 -15.682059 -25.087701 -3.510070 -20.385955 22.522569 -2.095372 0.000000 0.000000 0.000000 7.125000 0.000000 0.000000 4.774952 27.734541 2.010657
-4.390789 17.966146 -4.250774 1.688483 -0.258715 6.417657 0.000000 0.000000 0.000000 -14.803373 -7.386955 -15.030076 1.660047 8.118913 23.075795 -0.187815 10.111910 -10.735975 0.798665 -5.704202 -15.928451 0.000000 0.000000 0.000000 21.664443 8.958374 -13.447296 -2.370043 -9.597647 27.683394 -0.991814 2.398376 -18.169557 -0.530926 -4.668791 12.966309 -2.185187 -1.960634 5.232994 2.477605 -2.680245 0.946445 3.956224 -1.324421 -1.737311 -10.918104 -6.302027 -21.700768 3.584934 -6.088986 22.808106 2.118090 -3.261056 11.506803 0.000000 0.000000 0.000000 -1.024626 -2.396757 -23.744258 18.002478 -28.159653 4.550749 8.603228 16.431918 -25.762544 0.000000 0.000000 0.000000 -7.125000 0.000000 0.000000 -22.339135 54.569360 5.456863 0.000000 0.000000 0.000000 -6.736528 1.110684 12.117059 -15.768107 -25.205184 -3.546644 -20.552584 21.620105 -1.405284 0.000000 0.000000 0.000000 7.125000 0.000000 0.000000 4.673572 28.467031 1.885802
